<svg xmlns="http://www.w3.org/2000/svg" xmlns:xlink="http://www.w3.org/1999/xlink" width="76" height="57" viewBox="0 0 76 57">
    <defs>
        <linearGradient id="b" x1="45.244%" x2="29.925%" y1="55.686%" y2="100%">
            <stop offset="0%" stop-color="#DAE8FF"/>
            <stop offset="100%" stop-color="#EFF4FF"/>
        </linearGradient>
        <ellipse id="a" cx="30.109" cy="25.5" rx="25.657" ry="25.5"/>
        <linearGradient id="c" x1="41.871%" x2="41.871%" y1="0%" y2="100%">
            <stop offset="0%" stop-color="#A6C6FF"/>
            <stop offset="100%" stop-color="#EFF4FF"/>
        </linearGradient>
        <linearGradient id="e" x1="137.889%" x2="16.191%" y1="135.209%" y2="27.8%">
            <stop offset="0%" stop-color="#FF5A9F"/>
            <stop offset="100%" stop-color="#FF66A2"/>
        </linearGradient>
        <linearGradient id="f" x1="50%" x2="-544.185%" y1="-82.175%" y2="242.971%">
            <stop offset="0%" stop-color="#1CCCA5"/>
            <stop offset="100%" stop-color="#0A5645"/>
        </linearGradient>
    </defs>
    <g fill="none" fill-rule="evenodd">
        <g transform="translate(7 3)">
            <mask id="d" fill="#fff">
                <use xlink:href="#a"/>
            </mask>
            <use fill="url(#b)" xlink:href="#a"/>
            <path fill="url(#c)" fill-rule="nonzero" d="M4.453 26.674v-5.916h4.602v5.916-12.023l4.218-2.672v14.695h.767v-9.16h4.602v9.16h.958v-4.58l2.493-1.909 2.3 1.909v4.58h.96v-9.16h2.109v12.023L6.096 45.555l-1.643-18.88z" mask="url(#d)"/>
            <path fill="url(#c)" fill-rule="nonzero" d="M37.04 20.726l5.236-2.68v10.943h1.445v-5.471l3.759-2.28 3.47 2.28v5.471h1.445V18.046h3.18v14.363c1.357 5.801-.477 10.193-5.499 13.176-3.938 2.34-11.052-4.568-13.492-15.186-.69-3.007-.539-6.231.457-9.673z" mask="url(#d)" transform="matrix(-1 0 0 1 92.167 0)"/>
            <ellipse cx="31.5" cy="47.37" fill="#A7ACAE" opacity=".302" rx="31.5" ry="1.27"/>
        </g>
        <g fill-rule="nonzero" transform="matrix(-1 0 0 1 56.01 12.62)">
            <path fill="url(#e)" d="M2.557 1.452h18.078v35.936H2.557V1.452z"/>
            <path fill="#E3528A" d="M20.452 1.452h12.6v35.936h-12.6V1.452z"/>
            <path fill="#CD175F" d="M2.557 0h30.495v1.452H2.557z"/>
            <path fill="#047ECE" d="M0 5.082h2.557v1.452H0zM0 8.893h2.557v1.452H0z"/>
            <path fill="#E8186A" d="M2.557 13.794h18.078v1.452H2.557zM2.557 26.135h18.078v1.452H2.557z"/>
            <path fill="#CD175F" d="M20.452 13.794h12.6v1.452h-12.6zM20.452 26.135h12.6v1.452h-12.6z"/>
            <rect width="5.282" height="5.989" x="4.748" y="5.082" fill="#FFB5D3" rx="1.27"/>
            <rect width="5.282" height="5.989" x="12.24" y="5.082" fill="#FFB5D3" rx="1.27"/>
            <rect width="5.282" height="5.989" x="4.748" y="17.786" fill="#FFB5D3" rx="1.27"/>
            <rect width="5.282" height="5.989" x="12.24" y="17.786" fill="#FFB5D3" rx="1.27"/>
            <path fill="#CD175F" d="M11.96 29.947a3.378 3.378 0 0 1 3.38 3.378v4.063H8.582v-4.063a3.378 3.378 0 0 1 3.378-3.378z"/>
            <rect width="5.296" height="5.989" fill="#FFB5D3" rx="1.452" transform="translate(24.104 5.082)"/>
            <rect width="5.296" height="5.989" fill="#FFB5D3" rx="1.452" transform="translate(24.104 17.786)"/>
        </g>
        <path fill="#047ECE" fill-rule="nonzero" d="M55.644 15.705v9.074h9.041c.654 0 1.185-.533 1.185-1.189v-6.696c0-.656-.531-1.19-1.185-1.19h-9.04z"/>
        <path fill="#009AFF" fill-rule="nonzero" d="M56.74 15.705v9.074h8.072c.584 0 1.058-.533 1.058-1.189v-6.696c0-.656-.474-1.19-1.058-1.19H56.74z"/>
        <path fill="#FFF" d="M63.314 22.266c0 .384-.301.698-.67.698h-.156c-.368 0-.67-.314-.67-.698V20.34h-1.94v1.926c0 .384-.3.698-.668.698h-.158c-.368 0-.669-.314-.669-.698V17.31c0-.384.301-.699.67-.699h.157c.367 0 .668.315.668.699v1.663h1.94v-1.663c0-.384.302-.699.67-.699h.157c.368 0 .669.315.669.699v4.955z"/>
        <g fill-rule="nonzero">
            <path fill="#18B290" d="M18.063 46.842c.291 0 .528.236.528.528v2.472a.528.528 0 1 1-1.056 0V47.37c0-.292.236-.528.528-.528z"/>
            <path fill="url(#f)" d="M7.245 9.51L5.709 7.016h.586c.118 0 .23-.078.29-.202a.459.459 0 0 0-.014-.404L5.156 3.905h.48c.125 0 .237-.085.297-.217a.459.459 0 0 0-.033-.405L3.925.148A.33.33 0 0 0 3.662 0a.33.33 0 0 0-.264.148L1.424 3.283a.459.459 0 0 0-.033.405c.06.132.17.217.296.217h.48L.752 6.41a.459.459 0 0 0-.013.404c.06.124.171.202.29.202h.586L.1 9.511a.438.438 0 0 0-.02.404c.053.132.164.21.29.21h6.604a.313.313 0 0 0 .29-.21.437.437 0 0 0-.02-.404z" transform="translate(14.192 37.484)"/>
        </g>
        <g fill-rule="nonzero" transform="translate(54 36.214)">
            <path fill="#19BB97" d="M4.474 7.623a.64.64 0 0 1 .639.639v4.711a.64.64 0 1 1-1.278 0V8.262a.64.64 0 0 1 .639-.64z"/>
            <ellipse cx="4.291" cy="4.265" fill="#1CCCA5" rx="4.291" ry="4.265"/>
        </g>
        <g fill="#1CCCA5" fill-rule="nonzero">
            <path d="M22.78 45.798c.371 0 .673.302.673.674v3.225a.674.674 0 0 1-1.347 0v-3.225c0-.372.301-.674.673-.674z"/>
            <path d="M27.081 45.996l-1.958-3.233h.747c.15 0 .293-.101.369-.262a.603.603 0 0 0-.017-.524l-1.804-3.244h.612c.16 0 .303-.11.378-.282a.603.603 0 0 0-.042-.524l-2.518-4.063a.418.418 0 0 0-.335-.191.418.418 0 0 0-.336.191l-2.518 4.063a.603.603 0 0 0-.042.524c.076.171.219.282.378.282h.613l-1.805 3.244a.603.603 0 0 0-.016.524c.075.16.218.262.369.262h.747l-1.93 3.233a.575.575 0 0 0-.026.524c.067.171.21.272.37.272h8.42c.16 0 .302-.1.37-.272a.575.575 0 0 0-.026-.524z"/>
        </g>
    </g>
</svg>
